# xmcd
#
# Track frame offsets: 
#        150
#        20450
#        45797
#        72057
#        94589
#        113911
#        139397
#        160414
#        179637
#        200240
#        219688
#        235207
#        254050
#        279361
#
# Disc length: 4053 seconds
#
# Revision: 0
# Processed by: cddbd v1.5.2PL0 Copyright (c) Steve Scherf et al.
# Submitted via: ExactAudioCopy v0.99pb5
#
DISCID=d20fd30e
DTITLE=Professor RJ Ross and University Of Soul - A Million Watts Of Lov
DTITLE=e
DYEAR=1900
DGENRE=R&B
TTITLE0=Like A Circle
TTITLE1=The Outsider
TTITLE2=Autumn Leaves
TTITLE3=A Million Watts Of Love (Electricity)
TTITLE4=Summertime
TTITLE5=Wishing
TTITLE6=Face To Face
TTITLE7=I've Got To Use My Imagination
TTITLE8=Venturay Highway
TTITLE9=Do It Again
TTITLE10=I'm On My Way
TTITLE11=Drive My Car
TTITLE12=When We Had Enough
TTITLE13=Only Dreamers
EXTD=
EXTT0=
EXTT1=
EXTT2=
EXTT3=
EXTT4=
EXTT5=
EXTT6=
EXTT7=
EXTT8=
EXTT9=
EXTT10=
EXTT11=
EXTT12=
EXTT13=
PLAYORDER=
